<?xml version="1.0" encoding="utf-8"?>
<!-- Generator: Adobe Illustrator 24.3.0, SVG Export Plug-In . SVG Version: 6.00 Build 0)  -->
<svg version="1.1" xmlns="http://www.w3.org/2000/svg" xmlns:xlink="http://www.w3.org/1999/xlink" x="0px" y="0px"
	 viewBox="0 0 1931 510" enable-background="new 0 0 1931 510" xml:space="preserve">
<g id="Слой_1">
	<g>
		<g>
			<linearGradient id="SVGID_1_" gradientUnits="userSpaceOnUse" x1="1204.3135" y1="144.2671" x2="1204.3135" y2="451.9326">
				<stop  offset="0" style="stop-color:#FFBA48"/>
				<stop  offset="1" style="stop-color:#FF9A42"/>
			</linearGradient>
			<path fill="url(#SVGID_1_)" d="M745.25,366.21l-1.38,1.1c-19.07-0.63-33.44-0.94-43.11-0.94c-19.72,0-33.81,0.31-42.29,0.94
				l-1.24-1.42v-10.7l1.38-1.57c9.58-0.63,15.02-1.15,16.31-1.57c2.67-0.84,4.24-2.78,4.7-5.82c1.2-7.55,1.8-23.8,1.8-48.76V181.39
				l-86.37,185.92c-9.49-0.42-18.33-0.63-26.53-0.63c-5.16,0-17.09,0.21-35.79,0.63l-1.38-1.42v-10.7l1.38-1.57
				c9.4-0.63,14.79-1.15,16.17-1.57c2.67-0.84,4.24-2.78,4.7-5.82c1.2-7.55,1.8-23.8,1.8-48.76v-83.21c0-24.96-0.6-41.21-1.8-48.76
				c-0.46-3.04-2.03-4.98-4.7-5.82c-1.38-0.42-6.77-0.94-16.17-1.57l-1.38-1.57v-10.7l1.24-1.42c14.28,0.63,28.51,0.94,42.7,0.94
				c9.4,0,23.58-0.31,42.56-0.94l1.24,1.42v10.7l-1.38,1.57c-9.4,0.63-14.79,1.15-16.17,1.57c-2.67,0.84-4.24,2.78-4.7,5.82
				c-1.2,7.55-1.8,23.81-1.8,48.76V332.7l86.37-188.28c12.07,0.63,20.27,0.94,24.6,0.94c3.13,0,15.75-0.31,37.86-0.94l1.38,1.42
				v10.7l-1.52,1.57c-9.4,0.63-14.79,1.15-16.17,1.57c-2.67,0.84-4.24,2.78-4.7,5.82c-1.2,7.55-1.8,23.81-1.8,48.76v83.21
				c0,24.96,0.6,41.21,1.8,48.76c0.46,3.04,2.03,4.98,4.7,5.82c1.29,0.42,6.72,0.94,16.31,1.57l1.38,1.57V366.21z"/>
			<linearGradient id="SVGID_2_" gradientUnits="userSpaceOnUse" x1="1204.3135" y1="144.2671" x2="1204.3135" y2="451.9326">
				<stop  offset="0" style="stop-color:#FFBA48"/>
				<stop  offset="1" style="stop-color:#FF9A42"/>
			</linearGradient>
			<path fill="url(#SVGID_2_)" d="M855.25,368.88h-8.15c0-0.42-2.67-6.24-8.02-17.46l-17.41-39.64
				c-4.52-10.17-9.17-21.18-13.96-33.03l-14.1-33.82v80.38c0,12.17,0.32,19.58,0.97,22.26c0.64,2.67,1.87,4.43,3.66,5.27
				c1.8,0.84,6.93,1.47,15.41,1.89l1.52,1.57v9.59l-1.38,1.57c-9.86-0.73-18.79-1.1-26.81-1.1c-5.71,0-14.14,0.42-25.29,1.26
				l-1.38-1.57v-9.59l1.38-1.57c7.74-0.31,12.71-0.87,14.92-1.65c2.21-0.79,3.57-2.38,4.08-4.8c0.5-2.41,0.76-10.12,0.76-23.12
				v-57.73l-0.28-24.38c0-4.82-0.76-8.1-2.28-9.83c-1.52-1.73-5.14-2.65-10.85-2.75c-1.47-0.1-3.64-0.21-6.49-0.31l-1.38-1.73v-9.59
				l1.38-1.57c7.65,0.63,16.54,0.94,26.67,0.94c11.06,0,22.06-0.31,33.03-0.94c7.46,20.97,21.74,54.74,42.84,101.3
				c6.72-15.41,14.51-33.92,23.35-55.52c8.84-21.6,14.83-36.86,17.96-45.77c8.02,0.73,15.48,1.1,22.39,1.1
				c3.78,0,14.6-0.37,32.47-1.1l1.38,1.42v9.6l-1.52,1.57c-7.56,0.31-12.44,0.84-14.65,1.57c-2.21,0.73-3.57,2.1-4.08,4.09
				c-0.51,1.99-0.88,9.33-1.11,22.02c-0.23,12.69-0.35,23.91-0.35,33.66c0,15.73,0.16,29.1,0.48,40.11
				c0.32,11.01,0.83,17.22,1.52,18.64c0.69,1.42,2.03,2.47,4.01,3.15c1.98,0.68,6.79,1.18,14.44,1.49l1.38,1.57v9.59l-1.38,1.57
				c-9.03-0.73-21.79-1.1-38.28-1.1c-13.08,0-25.24,0.31-36.48,0.94l-1.38-1.42v-9.75l1.38-1.57c7.37-0.31,12.04-0.73,14.03-1.26
				c1.98-0.52,3.34-1.42,4.08-2.67c0.74-1.26,1.24-5.01,1.52-11.25c0.28-6.24,0.42-20.11,0.42-41.6v-49.86
				C886.25,291.76,869.43,332.08,855.25,368.88z"/>
			<linearGradient id="SVGID_3_" gradientUnits="userSpaceOnUse" x1="1204.3135" y1="144.2671" x2="1204.3135" y2="451.9326">
				<stop  offset="0" style="stop-color:#FFBA48"/>
				<stop  offset="1" style="stop-color:#FF9A42"/>
			</linearGradient>
			<path fill="url(#SVGID_3_)" d="M1151.53,365.89l-1.38,1.57c-8.66-0.73-21.33-1.1-38-1.1c-15.39,0-28.01,0.37-37.86,1.1
				l-1.38-1.57v-9.59l1.38-1.57c8.47-0.42,13.68-1.05,15.62-1.89c1.93-0.84,3.13-2.41,3.59-4.72c0.55-3.04,0.83-10.64,0.83-22.81
				v-93.75h-63.71v61.5c0,35.65,0.74,54.74,2.21,57.25c0.83,1.36,1.94,2.26,3.32,2.67c2.39,0.74,7.37,1.31,14.92,1.73l1.38,1.57
				v9.59l-1.38,1.57c-8.66-0.73-21.37-1.1-38.14-1.1c-15.39,0-27.96,0.37-37.73,1.1l-1.38-1.57v-9.59l1.38-1.57
				c8.11-0.42,13.22-1.05,15.34-1.89c1.84-0.63,3.09-2.2,3.73-4.72c0.55-2.2,0.83-9.8,0.83-22.81v-51.59
				c0-24.43-0.65-37.65-1.93-39.64c-0.83-1.26-1.98-2.04-3.45-2.36c-2.3-0.63-7.14-1.1-14.51-1.42l-1.38-1.57v-9.91l1.38-1.57
				c7.65,0.73,23.81,1.1,48.5,1.1h95.9c11.79,0,21.92-0.37,30.4-1.1l1.38,1.57v9.91l-1.38,1.57c-8.11,0.21-13.36,0.79-15.75,1.73
				c-1.84,0.84-2.99,2.65-3.45,5.43c-0.46,2.78-0.69,11.25-0.69,25.4v62.45c0,12.17,0.28,19.77,0.83,22.81
				c0.46,2.31,1.66,3.88,3.59,4.72c1.93,0.84,7.09,1.47,15.48,1.89l1.52,1.57V365.89z"/>
			<linearGradient id="SVGID_4_" gradientUnits="userSpaceOnUse" x1="1204.3135" y1="144.2671" x2="1204.3135" y2="451.9326">
				<stop  offset="0" style="stop-color:#FFBA48"/>
				<stop  offset="1" style="stop-color:#FF9A42"/>
			</linearGradient>
			<path fill="url(#SVGID_4_)" d="M1298.56,288.03l-1.93,2.52c-6.82,3.04-22.76,4.56-47.81,4.56c-15.57,0-29.76-0.16-42.56-0.47
				c0.83,16.67,4.84,29.99,12.02,39.95c8.01,11.01,19.12,16.52,33.3,16.52c14,0,26.44-4.19,37.31-12.58l2.35,5.5l-5.53,13.37
				c-16.58,10.38-33.07,15.57-49.47,15.57c-28.28,0-47.58-11.8-57.9-35.39c-5.34-12.27-8.01-25.95-8.01-41.05
				c0-23.59,6.22-42.68,18.66-57.25c13.91-16.25,31.23-24.38,51.96-24.38c18.88,0,33.21,5.4,42.98,16.2
				c9.76,10.8,14.65,28.1,14.65,51.91V288.03z M1261.66,279.54c-0.19-10.7-0.69-18.56-1.52-23.59c-1.66-9.02-4.84-15.78-9.54-20.29
				c-4.24-3.98-9.95-5.98-17.14-5.98c-19.07,0-28.61,14.05-28.61,42.15c0,2.31,0.05,5.3,0.14,8.97c4.61,0.31,10.55,0.47,17.83,0.47
				C1237.75,281.27,1250.7,280.69,1261.66,279.54z"/>
			<linearGradient id="SVGID_5_" gradientUnits="userSpaceOnUse" x1="1204.3135" y1="144.2671" x2="1204.3135" y2="451.9326">
				<stop  offset="0" style="stop-color:#FFBA48"/>
				<stop  offset="1" style="stop-color:#FF9A42"/>
			</linearGradient>
			<path fill="url(#SVGID_5_)" d="M1477.79,275.29c0,36.81-12.02,63.55-36.07,80.22c-13.45,9.33-29.11,14-46.98,14
				c-7.1,0-14.74-1-22.94-2.99v43.26c0,12.06,0.32,19.66,0.97,22.81c0.46,2.31,1.7,3.88,3.73,4.72c1.75,0.73,7.83,1.36,18.24,1.89
				l1.38,1.57v9.75l-1.52,1.42l-6.36-0.31c-10.6-0.53-22.02-0.79-34.27-0.79c-9.49,0-21.65,0.37-36.48,1.1l-1.38-1.57v-9.6
				l1.38-1.57c8.2-0.42,13.27-1,15.2-1.73c1.66-0.63,2.81-2.2,3.46-4.72c0.55-2.2,0.83-9.86,0.83-22.96V266.96
				c0-13.11-0.3-20.84-0.9-23.2c-0.6-2.36-1.73-3.85-3.39-4.48c-1.93-0.73-7.19-1.31-15.75-1.73l-1.52-1.57v-8.81l1.24-1.57
				c17.23-2.1,34.73-6.5,52.51-13.21l2.9,2.04l-0.14,26.74c14.46-17.93,31.41-26.9,50.85-26.9c9.67,0,18.7,2.36,27.08,7.08
				c8.94,5.03,15.75,12.06,20.45,21.08C1475.3,251.96,1477.79,262.92,1477.79,275.29z M1441.86,295.9
				c0-24.85-6.17-41.68-18.52-50.49c-6.27-4.51-13.08-6.76-20.45-6.76c-13.91,0-23.22,6.08-27.91,18.25
				c-2.12,5.56-3.18,14.31-3.18,26.27v53.79c10.13,11.75,20.91,17.62,32.34,17.62c7.46,0,14.28-2.67,20.45-8.02
				c5.71-5.14,10-11.8,12.85-19.98C1440.39,317.97,1441.86,307.75,1441.86,295.9z"/>
			<linearGradient id="SVGID_6_" gradientUnits="userSpaceOnUse" x1="1204.3135" y1="144.2671" x2="1204.3135" y2="451.9326">
				<stop  offset="0" style="stop-color:#FFBA48"/>
				<stop  offset="1" style="stop-color:#FF9A42"/>
			</linearGradient>
			<path fill="url(#SVGID_6_)" d="M1671.53,217.41l1.52,1.57v9.59l-1.8,1.57c-9.03,0.31-14.49,1.1-16.38,2.36
				c-1.89,1.26-2.88,4.88-2.97,10.85l-0.41,14c-0.09,4.72-0.14,15.68-0.14,32.87c0,16.67,0.11,30.38,0.35,41.13
				c0.23,10.75,0.67,16.86,1.31,18.33c0.64,1.47,1.77,2.57,3.39,3.3c1.61,0.74,6.65,1.31,15.13,1.73l1.52,1.57v9.59l-1.38,1.57
				c-8.75-0.73-21.37-1.1-37.86-1.1c-15.39,0-27.96,0.37-37.73,1.1l-1.38-1.57v-9.59l1.38-1.57c8.66-0.42,13.77-1.02,15.34-1.81
				c1.57-0.79,2.65-1.94,3.25-3.46c0.6-1.52,1.04-6.95,1.31-16.28c0.28-9.33,0.41-23.54,0.41-42.63v-46.87
				c-25.61,48.55-46.43,89.66-62.46,123.32l-25.57-0.63c-10.5,0-20.54,0.37-30.12,1.1l-1.24-1.57v-9.75l1.24-1.42
				c8.29-0.42,13.24-0.94,14.86-1.57c1.61-0.63,2.76-1.62,3.45-2.99c0.69-1.36,1.17-6.06,1.45-14.08c0.28-8.02,0.42-14.29,0.42-18.8
				c0-34.29-0.07-56.26-0.21-65.91c-0.14-9.65-0.62-15.23-1.45-16.75c-0.83-1.52-2.14-2.57-3.94-3.15
				c-1.8-0.58-6.61-1.02-14.44-1.34l-1.38-1.73v-9.6l1.38-1.57c8.84,0.73,21.42,1.1,37.73,1.1c16.67,0,29.3-0.37,37.86-1.1
				l1.38,1.57v9.6l-1.52,1.73c-8.2,0.42-13.11,0.94-14.72,1.57c-1.61,0.63-2.74,1.49-3.39,2.6c-0.65,1.1-1.15,5.72-1.52,13.84
				c-0.37,8.13-0.58,17.91-0.62,29.33c-0.05,11.43-0.07,32.4-0.07,62.92c7.09-13.21,17.8-34.05,32.13-62.52
				c14.32-28.47,24.02-48.63,29.09-60.48c6.45,0.63,14.28,0.94,23.49,0.94C1647.53,218.35,1658.63,218.04,1671.53,217.41z"/>
			<linearGradient id="SVGID_7_" gradientUnits="userSpaceOnUse" x1="1204.3135" y1="144.2671" x2="1204.3135" y2="451.9326">
				<stop  offset="0" style="stop-color:#FFBA48"/>
				<stop  offset="1" style="stop-color:#FF9A42"/>
			</linearGradient>
			<path fill="url(#SVGID_7_)" d="M1877.29,366.21l-1.38,1.1c-14-0.63-28.01-0.94-42.01-0.94c-14.28,0-28.65,0.31-43.12,0.94
				l-1.24-1.1l-0.14-11.01l1.38-1.57c9.4-0.63,14.79-1.15,16.17-1.57c2.67-0.84,4.24-2.78,4.7-5.82c1.2-7.55,1.8-23.8,1.8-48.76
				v-84.78c0-30.83-0.41-47.5-1.24-50.02c-9.12-0.94-15.98-1.42-20.59-1.42c-30.4,0-45.6,13.48-45.6,40.42
				c0,15.31,5.89,27.53,17.69,36.65c5.25,3.99,10.73,6.71,16.44,8.18c4.7,1.16,12.9,2.04,24.6,2.67l0.14,4.4
				c-8.66,13.84-20.68,34.66-36.07,62.45c-14.56,26.43-23.63,43.52-27.22,51.28c-8.94-0.63-17.41-0.94-25.43-0.94
				c-6.17,0-16.77,0.31-31.78,0.94l-1.38-1.1V355.2l1.11-1.57c11.05-1.26,21.42-8.75,31.09-22.49c7.19-12.27,14.42-24.59,21.7-36.96
				c9.21-15.2,16.81-27.94,22.8-38.22l-0.97-1.73c-14.92-2.1-27.27-7.71-37.04-16.83c-11.05-10.38-16.58-23.65-16.58-39.8
				c0-19.29,7.09-33.5,21.28-42.63c11.24-7.13,26.07-10.7,44.5-10.7c4.7,0,10.46,0.16,17.27,0.47c9.12,0.42,20.36,0.63,33.72,0.63
				c22.85,0,40.86-0.31,54.03-0.94l1.38,1.42v10.7l-1.52,1.57c-9.4,0.63-14.79,1.15-16.17,1.57c-2.67,0.84-4.24,2.78-4.7,5.82
				c-1.2,7.55-1.8,23.81-1.8,48.76v83.21c0,24.96,0.6,41.21,1.8,48.76c0.46,3.04,2.03,4.98,4.7,5.82c1.29,0.42,6.72,0.94,16.31,1.57
				l1.38,1.57V366.21z"/>
		</g>
	</g>
	<g display="none">
		<g display="inline">
			<linearGradient id="SVGID_8_" gradientUnits="userSpaceOnUse" x1="1183.0681" y1="478.1299" x2="1183.0681" y2="372.1924">
				<stop  offset="0" style="stop-color:#FFBA48"/>
				<stop  offset="1" style="stop-color:#FF9A42"/>
			</linearGradient>
			<path fill="url(#SVGID_8_)" d="M1075.06,477.24l-0.73,0.89c-6.56-0.35-10.38-0.52-11.48-0.52c-2.16,0-4.12,0.05-5.88,0.15
				c-2.6,0.15-4.25,0.22-4.95,0.22c-1.45,0-2.68-0.45-3.7-1.34c-2.46-2.13-5.61-5.62-9.44-10.48l-30.76-38.73v17.62
				c0,11.8,0.29,19.48,0.86,23.05c0.22,1.44,0.97,2.35,2.24,2.75c0.66,0.2,3.23,0.45,7.72,0.74l0.66,0.74v4.98l-0.59,0.74
				c-4.4-0.3-11.18-0.45-20.33-0.45c-9.46,0-16.24,0.15-20.33,0.45l-0.66-0.67v-5.06l0.66-0.74c4.49-0.3,7.06-0.54,7.72-0.74
				c1.28-0.4,2.02-1.31,2.24-2.75c0.57-3.57,0.86-11.25,0.86-23.05v-39.33c0-11.79-0.29-19.48-0.86-23.05
				c-0.22-1.44-0.97-2.35-2.24-2.75c-0.66-0.2-3.23-0.45-7.72-0.74l-0.66-0.74v-5.06l0.66-0.67c4.22,0.3,11,0.45,20.33,0.45
				c9.55,0,16.32-0.15,20.33-0.45l0.59,0.67v5.06l-0.66,0.74c-4.49,0.3-7.06,0.55-7.72,0.74c-1.28,0.4-2.02,1.31-2.24,2.75
				c-0.57,3.57-0.86,11.25-0.86,23.05v18.44c2.16-2.53,6.86-7.95,14.12-16.28c3.83-4.41,6.53-7.61,8.12-9.59
				c4.31-5.4,7.19-9.17,8.65-11.3c2.38-3.47,3.56-5.92,3.56-7.36c0-0.59-0.2-1.01-0.59-1.26l-0.73-0.67v-4.24l0.79-0.74
				c4.84,0.3,9.37,0.45,13.6,0.45c2.9,0,7.22-0.15,12.94-0.45l0.73,0.74v4.98l-0.66,0.67c-4.75,0.2-8.25,0.87-10.49,2.01
				c-1.85,0.94-4.75,3.32-8.71,7.14c-4.4,4.21-10.08,10.09-17.03,17.62c-2.6,2.88-6.07,6.64-10.43,11.3l37.75,44.16
				c5.19,6.1,10.1,9.62,14.72,10.56l0.59,0.74V477.24z"/>
			<linearGradient id="SVGID_9_" gradientUnits="userSpaceOnUse" x1="1183.0681" y1="478.1299" x2="1183.0681" y2="372.1924">
				<stop  offset="0" style="stop-color:#FFBA48"/>
				<stop  offset="1" style="stop-color:#FF9A42"/>
			</linearGradient>
			<path fill="url(#SVGID_9_)" d="M1178.81,477.31l-0.59,0.74c-9.77-0.3-15.66-0.45-17.69-0.45c-8.1,0-15.62,0.15-22.57,0.45
				l-0.59-0.74v-4.68l0.66-0.82l5.74-0.37c2.42-0.15,3.63-1.12,3.63-2.9c0-1.04-0.62-3.37-1.85-6.99l-5.35-15.69
				c-6.07-0.1-12.28-0.15-18.61-0.15c-3.43,0-8.54,0.05-15.31,0.15l-2.9,9.07c-2.2,6.89-3.3,11.2-3.3,12.94c0,1.88,1.03,3,3.1,3.34
				c1.14,0.2,3.39,0.4,6.73,0.59l0.66,0.74v4.76l-0.66,0.74c-8.14-0.3-13.38-0.45-15.71-0.45c-1.8,0-6.27,0.15-13.4,0.45l-0.66-0.67
				v-4.83l0.73-0.74c4.53-0.3,7.31-1.31,8.35-3.05c1.03-1.73,4.92-12.07,11.65-31l17.23-48.54c1.28-3.77,3.21-9.44,5.81-17.02h9.37
				l34.98,92.7c1.36,3.52,2.6,5.5,3.7,5.95c1.45,0.59,3.54,0.89,6.27,0.89l0.59,0.82V477.31z M1136.97,437.32l-14.12-38.95
				l-13.53,38.95c3.61,0.15,8.29,0.22,14.06,0.22C1128.96,437.54,1133.49,437.46,1136.97,437.32z"/>
			<linearGradient id="SVGID_10_" gradientUnits="userSpaceOnUse" x1="1183.0681" y1="478.1299" x2="1183.0681" y2="372.1924">
				<stop  offset="0" style="stop-color:#FFBA48"/>
				<stop  offset="1" style="stop-color:#FF9A42"/>
			</linearGradient>
			<path fill="url(#SVGID_10_)" d="M1305.33,422.3c0,13.68-4.42,23.74-13.27,30.18c-4.84,3.52-10.54,5.9-17.09,7.14
				c-4.4,0.79-10.54,1.19-18.41,1.19c0.18,5.05,1.1,8.08,2.77,9.07c0.57,0.35,2.09,0.74,4.55,1.19l3.23,0.59l0.73,0.67v4.98
				l-0.66,0.74c-4.44-0.3-11.13-0.45-20.06-0.45c-9.81,0-16.72,0.15-20.72,0.45l-0.66-0.74v-4.98l0.73-0.82l3.23-0.59
				c2.81-0.5,4.53-1.07,5.15-1.71c1.36-1.34,2.05-4.14,2.05-8.4c-13.42,0-23.54-1.76-30.36-5.28c-7.74-4.01-13.07-10.33-15.97-18.96
				c-1.54-4.56-2.31-9.32-2.31-14.27c0-20.17,10.71-31.4,32.14-33.68c4.13-0.45,9.66-0.67,16.57-0.67
				c-0.13-3.07-0.74-5.19-1.82-6.36c-1.08-1.16-3.99-2-8.75-2.49l-0.66-0.67v-5.06l0.66-0.74c4.36,0.35,11.42,0.52,21.19,0.52
				c9.15,0,15.69-0.17,19.6-0.52l0.66,0.74v5.06l-0.66,0.67l-3.3,0.52c-3.04,0.5-4.93,1.26-5.68,2.3c-0.88,1.24-1.39,3.25-1.52,6.02
				c12.94,0,22.75,1.29,29.44,3.87C1298.93,396.73,1305.33,406.89,1305.33,422.3z M1237.68,437.84v-29.66
				c0-3.07-0.11-7.71-0.33-13.9c-8.58,0-14.7,1.04-18.35,3.12c-4.71,2.68-7.83,7.34-9.37,13.98c-0.84,3.62-1.25,7.48-1.25,11.6
				c0,12.14,3.08,20.84,9.24,26.09c4.05,3.47,10.67,5.2,19.87,5.2C1237.62,447.08,1237.68,441.6,1237.68,437.84z M1285.2,422.97
				c0-17.49-6.31-26.89-18.94-28.17c-2.95-0.3-6.27-0.45-9.96-0.45c-0.22,6.2-0.33,10.83-0.33,13.9v29.66
				c0,3.77,0.07,9.24,0.2,16.43c5.1,0,9.02-0.32,11.75-0.97c3.08-0.74,5.85-2.2,8.32-4.39
				C1282.21,443.68,1285.2,435.01,1285.2,422.97z"/>
			<linearGradient id="SVGID_11_" gradientUnits="userSpaceOnUse" x1="1183.0681" y1="478.1299" x2="1183.0681" y2="372.1924">
				<stop  offset="0" style="stop-color:#FFBA48"/>
				<stop  offset="1" style="stop-color:#FF9A42"/>
			</linearGradient>
			<path fill="url(#SVGID_11_)" d="M1388.42,452.78c-0.97,7.24-1.45,15.41-1.45,24.53l-0.66,0.74l-47.98-0.45
				c-8.01,0-13.66,0.15-16.96,0.45l-0.66-0.74v-2.08l0.33-0.89c3.26-2.33,5.02-3.79,5.28-4.39c0.4-0.94,0.64-4.24,0.73-9.89
				l0.2-16.65v-37.69c0-11.79-0.29-19.48-0.86-23.05c-0.22-1.44-0.97-2.35-2.24-2.75c-0.66-0.2-3.23-0.45-7.72-0.74l-0.66-0.74
				v-5.06l0.66-0.67c4.44,0.3,11.31,0.45,20.59,0.45c8.27,0,24-0.15,47.19-0.45l0.73,0.59l-0.86,8.25
				c-0.26,2.63-0.46,4.86-0.59,6.69l-0.46,6.91l-0.66,0.82h-3.83l-0.66-0.74c-0.04-6.74-0.4-10.58-1.06-11.52
				c-0.48-0.69-2.85-1.24-7.1-1.64c-4.25-0.4-7.97-0.59-11.19-0.59c-3.83,0-7.7,0.17-11.62,0.52c-0.48,5.2-0.73,12.42-0.73,21.63
				v15.39c3.48,0.25,6.29,0.37,8.45,0.37l8.65-0.07c4.05-0.05,6.34-0.42,6.86-1.12c0.7-0.89,1.17-4.24,1.39-10.04l0.66-0.74h4.09
				l0.66,0.74c-0.18,5.55-0.26,10.63-0.26,15.24c0,5.01,0.09,10.48,0.26,16.43l-0.66,0.67h-4.42l-0.66-0.74
				c0-5.7-0.35-9.08-1.06-10.15c-0.71-1.06-2.84-1.77-6.4-2.12c-2.68-0.25-5.54-0.37-8.58-0.37c-3.21,0-6.2,0.12-8.98,0.37v22.67
				c0,6.49,0.11,12.79,0.33,18.88h8.98c12.85,0,20.72-0.57,23.63-1.71c0.48-0.2,0.83-0.47,1.06-0.82c0.44-0.69,0.86-2.18,1.25-4.46
				l1.58-9.22l0.66-0.82h4.03L1388.42,452.78z"/>
		</g>
	</g>
	
		<line display="none" fill="none" stroke="#FF9A42" stroke-width="12" stroke-miterlimit="10" x1="575.49" y1="409.07" x2="1793.32" y2="416.33"/>
</g>
<g id="Слой_2">
	<path fill="#DB2116" d="M373.59,149.73h-25.86v148.5h25.86c39.52,0,71.55-33.24,71.55-74.25S413.1,149.73,373.59,149.73
		L373.59,149.73z"/>
	<path fill="#FF3A2F" d="M419.28,223.98c0-41.01-32.03-74.25-71.55-74.25H139.98c-39.52,0-71.55,33.24-71.55,74.25
		s32.03,74.25,71.55,74.25h207.75C387.24,298.23,419.28,264.99,419.28,223.98z"/>
	<path fill="#FFBA48" d="M360.66,68.91c-47.85,0-88.59,31.61-103.88,75.81c-15.29-44.2-56.02-75.81-103.88-75.81
		c-60.94,0-110.34,51.27-110.34,114.5c0,44.4,24.35,82.89,59.94,101.89l44.29-14.45c-43.81-3.25-78.38-41.15-78.38-87.44
		c0-48.42,37.82-87.67,84.48-87.67s84.48,39.25,84.48,87.67h38.79c0-48.42,37.82-87.67,84.48-87.67s84.48,39.25,84.48,87.67
		C445.14,120.18,418.81,68.91,360.66,68.91L360.66,68.91z"/>
	<path fill="#FF9A42" d="M360.66,68.91c46.66,0,84.48,51.27,84.48,114.5c0,46.29-34.57,84.19-78.37,87.44l44.29,14.45
		c35.6-19,59.94-57.49,59.94-101.89C471,120.18,421.6,68.91,360.66,68.91L360.66,68.91z"/>
	<path fill="#FF9A42" d="M256.78,82.33c-14.28,0-25.86,12.01-25.86,26.84v162.81h51.72V109.17
		C282.64,94.34,271.06,82.33,256.78,82.33z"/>
	<g>
		<ellipse fill="#FFFFFF" cx="256.78" cy="109.17" rx="6.47" ry="6.71"/>
		<ellipse fill="#FFFFFF" cx="256.78" cy="165.35" rx="6.47" ry="6.71"/>
		<ellipse fill="#FFFFFF" cx="256.78" cy="221.54" rx="6.47" ry="6.71"/>
	</g>
	<path fill="#FF3A2F" d="M357.43,275.84l-100.64-3.87l-100.64,3.87l-50.32,22.97l150.97,53.67l150.97-53.67L357.43,275.84z"/>
	<path fill="#FFBA48" d="M407.75,298.81c-18.43,0-36.17-6.62-50.32-18.5c-14.15,11.88-31.89,18.5-50.32,18.5
		c-18.43,0-36.17-6.62-50.32-18.5c-14.15,11.88-31.89,18.5-50.32,18.5s-36.17-6.62-50.32-18.5c-14.15,11.88-31.89,18.5-50.32,18.5
		c-22.94,0-44.82-10.26-60.02-28.14c-4.72-5.56-4.21-14.04,1.14-18.94c5.35-4.9,13.53-4.37,18.25,1.19
		c10.3,12.11,25.1,19.06,40.62,19.06c15.52,0,30.33-6.95,40.62-19.06c2.46-2.89,5.99-4.54,9.7-4.54c3.71,0,7.24,1.65,9.7,4.54
		c10.29,12.11,25.1,19.06,40.62,19.06s30.33-6.95,40.62-19.06c2.46-2.89,5.99-4.54,9.7-4.54s7.24,1.65,9.7,4.54
		c10.29,12.11,25.1,19.06,40.62,19.06c15.52,0,30.33-6.95,40.62-19.06c2.46-2.89,5.99-4.54,9.7-4.54c3.71,0,7.24,1.65,9.7,4.54
		c10.29,12.11,25.1,19.06,40.62,19.06c15.52,0,30.33-6.95,40.62-19.06c4.72-5.56,12.9-6.09,18.25-1.19
		c5.36,4.9,5.87,13.38,1.14,18.94C452.57,288.56,430.69,298.81,407.75,298.81z"/>
	<path fill="#FF9A42" d="M380.49,312.23h51.72v107.35h-51.72V312.23z"/>
	<path fill="#FFBA48" d="M81.36,312.23h324.99v107.35H81.36V312.23z"/>
	<ellipse fill="#FFFFFF" cx="338.03" cy="365.91" rx="12.93" ry="13.42"/>
	<ellipse fill="#FFFFFF" cx="175.53" cy="365.91" rx="12.93" ry="13.42"/>
	<path fill="#FF3A2F" d="M269.71,352.49h-25.86c-7.14,0-12.93,6.01-12.93,13.42s5.79,13.42,12.93,13.42h25.86
		c7.14,0,12.93-6.01,12.93-13.42S276.85,352.49,269.71,352.49z"/>
	<path fill="#0ABF52" d="M107.22,352.49H81.36c-7.14,0-12.93,6.01-12.93,13.42s5.79,13.42,12.93,13.42h25.86
		c7.14,0,12.93-6.01,12.93-13.42S114.36,352.49,107.22,352.49z"/>
	<path fill="#FF7A3C" d="M432.21,298.81h-25.86v26.84h25.86c7.14,0,12.93-6.01,12.93-13.42
		C445.14,304.82,439.35,298.81,432.21,298.81z"/>
	<path fill="#FF9A42" d="M419.28,312.23c0-7.41-5.79-13.42-12.93-13.42H81.36c-7.14,0-12.93,6.01-12.93,13.42
		c0,7.41,5.79,13.42,12.93,13.42h324.99C413.49,325.65,419.28,319.64,419.28,312.23z"/>
	<path fill="#FF7A3C" d="M432.21,406.16h-25.86V433h25.86c7.14,0,12.93-6.01,12.93-13.42S439.35,406.16,432.21,406.16z"/>
	<path fill="#FF9A42" d="M419.28,419.58c0-7.41-5.79-13.42-12.93-13.42H81.36c-7.14,0-12.93,6.01-12.93,13.42S74.22,433,81.36,433
		h324.99C413.49,433,419.28,426.99,419.28,419.58z"/>
	<path fill="#1DA575" d="M432.21,352.49h-25.86v26.84h25.86c7.14,0,12.93-6.01,12.93-13.42S439.35,352.49,432.21,352.49z"/>
	<ellipse fill="#0ABF52" cx="406.35" cy="365.91" rx="12.93" ry="13.42"/>
</g>
</svg>
